<?xml version="1.0" encoding="iso-8859-1"?>
<!-- Generator: Adobe Illustrator 16.0.0, SVG Export Plug-In . SVG Version: 6.00 Build 0)  -->
<!DOCTYPE svg PUBLIC "-//W3C//DTD SVG 1.1//EN" "http://www.w3.org/Graphics/SVG/1.1/DTD/svg11.dtd">
<svg version="1.1" id="Capa_1" xmlns="http://www.w3.org/2000/svg" xmlns:xlink="http://www.w3.org/1999/xlink" x="0px" y="0px"
	 width="59.667px" height="59.666px" viewBox="0 0 59.667 59.666" style="enable-background:new 0 0 59.667 59.666;"
	 xml:space="preserve">
<g>
	<path d="M58.141,2.5c-0.006-0.098-0.014-0.195-0.029-0.292c-0.016-0.085-0.039-0.166-0.062-0.248
		c-0.021-0.085-0.045-0.17-0.078-0.252c-0.028-0.08-0.069-0.156-0.108-0.233c-0.039-0.079-0.078-0.156-0.125-0.231
		c-0.047-0.072-0.103-0.141-0.154-0.209c-0.053-0.067-0.104-0.136-0.162-0.198c-0.068-0.071-0.145-0.134-0.221-0.198
		c-0.047-0.038-0.084-0.084-0.135-0.12c-0.015-0.01-0.029-0.016-0.043-0.025c-0.084-0.061-0.177-0.107-0.267-0.156
		c-0.063-0.036-0.129-0.078-0.197-0.107c-0.079-0.037-0.168-0.06-0.252-0.087c-0.082-0.027-0.166-0.059-0.25-0.078
		c-0.073-0.016-0.151-0.021-0.229-0.031c-0.1-0.013-0.196-0.029-0.299-0.03C55.51,0.005,55.495,0,55.475,0H28.629
		c-0.027,0-0.054,0.007-0.081,0.008c-0.101,0.003-0.199,0.016-0.299,0.03c-0.08,0.012-0.16,0.021-0.239,0.04
		c-0.083,0.021-0.164,0.048-0.245,0.077c-0.09,0.03-0.18,0.062-0.268,0.104c-0.026,0.012-0.055,0.018-0.081,0.031L3.221,12.55
		c-0.047,0.022-0.085,0.056-0.13,0.082c-0.083,0.048-0.164,0.099-0.24,0.154c-0.07,0.052-0.136,0.106-0.2,0.165
		c-0.063,0.057-0.125,0.115-0.183,0.177c-0.061,0.065-0.116,0.135-0.17,0.206c-0.051,0.067-0.099,0.135-0.143,0.207
		c-0.046,0.073-0.085,0.15-0.124,0.229c-0.039,0.076-0.073,0.154-0.104,0.237c-0.031,0.081-0.056,0.165-0.078,0.25
		c-0.021,0.081-0.041,0.162-0.055,0.246c-0.016,0.095-0.023,0.191-0.029,0.29c-0.003,0.051-0.015,0.099-0.015,0.15v18.172
		c-0.13,0.9-0.215,1.838-0.242,2.818l0.242,0.006v21.043c0,1.481,1.201,2.684,2.683,2.684h42.031c0.002,0,0.006,0,0.008,0
		c0.166,0,0.33-0.02,0.49-0.049c0.051-0.012,0.101-0.021,0.149-0.035c0.105-0.025,0.211-0.061,0.312-0.1
		c0.058-0.021,0.108-0.041,0.162-0.064c0.103-0.047,0.198-0.102,0.293-0.16c0.039-0.021,0.08-0.043,0.116-0.068
		c0.132-0.09,0.254-0.188,0.365-0.301c0.017-0.018,0.027-0.033,0.043-0.051c0.094-0.1,0.183-0.203,0.26-0.312
		c0.029-0.043,0.058-0.09,0.084-0.135c0.056-0.092,0.105-0.184,0.15-0.275c0.025-0.059,0.053-0.116,0.074-0.18
		c0.016-0.039,0.035-0.074,0.047-0.113l9.006-27.455c0.014-0.047,0.018-0.094,0.029-0.141c0.021-0.094,0.045-0.186,0.061-0.272
		c0.017-0.095,0.021-0.188,0.027-0.279c0.002-0.049,0.016-0.094,0.016-0.145V2.68C58.161,2.618,58.145,2.56,58.141,2.5z
		 M7.118,17.626h6.002c-2.184,1.172-4.241,2.63-6.002,4.438V17.626z M19.214,17.85c0.228-0.078,0.456-0.152,0.684-0.225h6.049h4.01
		c-1.627,0.307-3.311,0.683-5.003,1.146c-8.873,2.424-14.899,6.421-17.835,11.721v-4.219H7.118
		C9.596,22.561,13.631,19.74,19.214,17.85z M8.599,54.298H7.116V46.57l0.62-8.237c0.526-19.5,35.692-19.354,36.038-19.364
		l0.014-1.341v3.042c-3.176,0.07-9.545,0.427-16.029,2.045c-12.3,3.069-18.925,9.25-19.159,17.908V54.298z M12.147,54.298h-0.864
		V40.66h-0.001c0.414-15.333,25.189-17.111,32.505-17.299v0.908c-2.502,0.049-8.559,0.351-14.733,2.015
		c-10.845,2.923-16.691,8.672-16.906,16.665L12.147,54.298L12.147,54.298z M15.261,54.298H14.83V42.984
		C15.222,28.51,38.333,27.096,43.79,26.961v1.3l0,0c-2.305,0.045-7.59,0.314-12.979,1.783c-9.691,2.642-14.918,7.896-15.114,15.166
		L15.261,54.298z M24.936,54.296c0.056-4.821,1.534-8.608,4.412-11.241c4.893-4.479,12.492-4.492,14.439-4.414v1.012
		c-2.144-0.279-5.943,0.113-8.996,1.449c-3.723,1.629-8.053,5.239-8.249,13.194H24.936z M29.235,54.296
		c0.115-4.03,1.455-7.116,4.011-9.168c3.75-3.01,8.984-2.972,10.359-2.813L43.6,42.541c0.061,0,0.123,0.002,0.188,0.004v1.188
		c-5.232,0.201-13.512,2.553-13.896,10.563H29.235z M43.79,54.298h-7.026v-0.002c0.75-1.422,2.14-2.479,4.213-3.188
		c0.979-0.336,1.966-0.537,2.813-0.656V54.298z M43.79,47.719c-3.784,0.461-8.504,2.192-9.938,6.577h-1.273
		c0.207-3.282,2.214-5.603,5.979-6.885c2-0.685,4.021-0.904,5.231-0.978V47.719z M43.79,35.953c-2.452-0.098-10.643,0-16.24,5.109
		c-3.463,3.164-5.243,7.617-5.302,13.233h-0.325v-6.659C22.231,36.2,39.2,34.947,43.79,34.818V35.953z M43.792,32.13H43.79
		c-2.094,0.05-6.618,0.312-11.235,1.611c-8.528,2.399-13.133,7.182-13.312,13.858v6.693h-1.291l0.427-8.984
		c0.35-12.951,20.383-14.242,25.415-14.361L43.792,32.13L43.792,32.13z M45.112,12.259H31.311h-5.367H15.662l10.282-5.211
		l3.324-1.686h2.043h18.864L45.112,12.259z M51.77,32.208l-2.615,7.979v-7.979v-5.366V15.822l3.638-4.953v15.973
		c0,0,0.147,1.804,0.133,1.848L51.77,32.208z"/>
</g>
<g>
</g>
<g>
</g>
<g>
</g>
<g>
</g>
<g>
</g>
<g>
</g>
<g>
</g>
<g>
</g>
<g>
</g>
<g>
</g>
<g>
</g>
<g>
</g>
<g>
</g>
<g>
</g>
<g>
</g>
</svg>
